G75*
%MOIN*%
%OFA0B0*%
%FSLAX25Y25*%
%IPPOS*%
%LPD*%
%AMOC8*
5,1,8,0,0,1.08239X$1,22.5*
%
%ADD10C,0.00000*%
%ADD11R,0.03550X0.05124*%
%ADD12R,0.05912X0.06699*%
%ADD13R,0.05124X0.10243*%
%ADD14C,0.07800*%
%ADD15R,0.05124X0.03550*%
%ADD16R,0.05715X0.02565*%
%ADD17R,0.05124X0.03117*%
%ADD18C,0.01100*%
%ADD19R,0.06699X0.05912*%
D10*
X0006800Y0006800D02*
X0006800Y0076761D01*
X0099751Y0076761D01*
X0099751Y0006800D01*
X0006800Y0006800D01*
D11*
X0030757Y0048550D03*
X0037843Y0048550D03*
D12*
X0041288Y0040550D03*
X0052312Y0040550D03*
X0058788Y0066800D03*
X0069812Y0066800D03*
D13*
X0070796Y0053050D03*
X0057804Y0053050D03*
D14*
X0088800Y0050550D03*
X0089800Y0060550D03*
X0088800Y0070550D03*
X0088800Y0038050D03*
X0089800Y0028050D03*
X0088800Y0018050D03*
X0014800Y0041800D03*
X0013800Y0051800D03*
X0014800Y0061800D03*
D15*
X0029300Y0062007D03*
X0029300Y0069093D03*
X0079300Y0057843D03*
X0079300Y0050757D03*
X0079300Y0036593D03*
X0079300Y0029507D03*
D16*
X0049714Y0054310D03*
X0049714Y0058050D03*
X0049714Y0061790D03*
X0038886Y0061790D03*
X0038886Y0058050D03*
X0038886Y0054310D03*
D17*
X0039181Y0029290D03*
X0039181Y0025550D03*
X0039181Y0021810D03*
X0049419Y0021810D03*
X0049419Y0029290D03*
D18*
X0055650Y0029450D02*
X0055650Y0026150D01*
X0055650Y0029450D02*
X0060450Y0029450D01*
X0060450Y0026150D01*
X0055650Y0026150D01*
X0055650Y0027249D02*
X0060450Y0027249D01*
X0060450Y0028348D02*
X0055650Y0028348D01*
X0055650Y0029447D02*
X0060450Y0029447D01*
X0055650Y0022450D02*
X0055650Y0019150D01*
X0055650Y0022450D02*
X0060450Y0022450D01*
X0060450Y0019150D01*
X0055650Y0019150D01*
X0055650Y0020249D02*
X0060450Y0020249D01*
X0060450Y0021348D02*
X0055650Y0021348D01*
X0055650Y0022447D02*
X0060450Y0022447D01*
D19*
X0029300Y0021288D03*
X0029300Y0032312D03*
M02*
