G75*
%MOIN*%
%OFA0B0*%
%FSLAX25Y25*%
%IPPOS*%
%LPD*%
%AMOC8*
5,1,8,0,0,1.08239X$1,22.5*
%
%ADD10C,0.00000*%
%ADD11C,0.00500*%
%ADD12C,0.00300*%
%ADD13C,0.00400*%
%ADD14C,0.02400*%
%ADD15C,0.00591*%
D10*
X0006800Y0006800D02*
X0006800Y0076761D01*
X0099751Y0076761D01*
X0099751Y0006800D01*
X0006800Y0006800D01*
D11*
X0019980Y0042603D02*
X0024050Y0042603D01*
X0023265Y0050568D02*
X0023265Y0054638D01*
X0025300Y0052603D02*
X0021230Y0052603D01*
X0020800Y0059980D02*
X0022835Y0064050D01*
X0024870Y0059980D01*
X0093730Y0071353D02*
X0097800Y0071353D01*
X0097015Y0063388D02*
X0097015Y0059318D01*
X0099050Y0061353D02*
X0094980Y0061353D01*
X0096585Y0052800D02*
X0098620Y0048730D01*
X0094550Y0048730D02*
X0096585Y0052800D01*
X0097800Y0038853D02*
X0093730Y0038853D01*
X0097015Y0030888D02*
X0097015Y0026818D01*
X0099050Y0028853D02*
X0094980Y0028853D01*
X0096585Y0020300D02*
X0098620Y0016230D01*
X0094550Y0016230D02*
X0096585Y0020300D01*
D12*
X0096886Y0011650D02*
X0095918Y0011650D01*
X0095435Y0011166D01*
X0095435Y0010199D01*
X0095918Y0009715D01*
X0096886Y0009715D01*
X0097370Y0010199D01*
X0097370Y0010683D01*
X0095435Y0010683D01*
X0094438Y0011650D02*
X0093954Y0011166D01*
X0093954Y0009231D01*
X0093470Y0009715D02*
X0094438Y0009715D01*
X0092473Y0009715D02*
X0091506Y0009715D01*
X0091990Y0009231D02*
X0091990Y0011166D01*
X0092473Y0011650D01*
X0090509Y0011650D02*
X0089542Y0011650D01*
X0090025Y0011650D02*
X0090025Y0009715D01*
X0089542Y0009715D01*
X0090025Y0008748D02*
X0090025Y0008264D01*
X0088061Y0008748D02*
X0088061Y0011650D01*
X0087577Y0011650D02*
X0088545Y0011650D01*
X0086566Y0011166D02*
X0086566Y0010199D01*
X0086082Y0009715D01*
X0084631Y0009715D01*
X0084631Y0012617D01*
X0084631Y0011650D02*
X0086082Y0011650D01*
X0086566Y0011166D01*
X0083619Y0011166D02*
X0083135Y0010683D01*
X0082168Y0010683D01*
X0081684Y0010199D01*
X0082168Y0009715D01*
X0083619Y0009715D01*
X0083619Y0011166D02*
X0083135Y0011650D01*
X0081684Y0011650D01*
X0080673Y0010199D02*
X0078738Y0010199D01*
X0077726Y0010199D02*
X0077242Y0009715D01*
X0076275Y0009715D01*
X0075791Y0010199D01*
X0075791Y0011166D01*
X0076275Y0011650D01*
X0077242Y0011650D01*
X0077726Y0011166D01*
X0077726Y0010199D01*
X0074780Y0010199D02*
X0074780Y0010683D01*
X0072845Y0010683D01*
X0072845Y0011166D02*
X0072845Y0010199D01*
X0073328Y0009715D01*
X0074296Y0009715D01*
X0074780Y0010199D01*
X0074296Y0011650D02*
X0073328Y0011650D01*
X0072845Y0011166D01*
X0071833Y0011650D02*
X0070382Y0011650D01*
X0069898Y0011166D01*
X0069898Y0010199D01*
X0070382Y0009715D01*
X0071833Y0009715D01*
X0071833Y0008748D02*
X0071833Y0011650D01*
X0068901Y0011650D02*
X0067934Y0011650D01*
X0068418Y0011650D02*
X0068418Y0009715D01*
X0067934Y0009715D01*
X0066922Y0009715D02*
X0065955Y0011650D01*
X0064987Y0009715D01*
X0063976Y0008748D02*
X0062041Y0011650D01*
X0061037Y0011650D02*
X0059585Y0010683D01*
X0061037Y0009715D01*
X0059585Y0008748D02*
X0059585Y0011650D01*
X0058574Y0010683D02*
X0056639Y0010683D01*
X0056639Y0011166D02*
X0056639Y0010199D01*
X0057123Y0009715D01*
X0058090Y0009715D01*
X0058574Y0010199D01*
X0058574Y0010683D01*
X0058090Y0011650D02*
X0057123Y0011650D01*
X0056639Y0011166D01*
X0055635Y0009715D02*
X0055151Y0009715D01*
X0054183Y0010683D01*
X0054183Y0011650D02*
X0054183Y0009715D01*
X0053172Y0009715D02*
X0053172Y0011650D01*
X0051721Y0011650D01*
X0051237Y0011166D01*
X0051237Y0009715D01*
X0050240Y0009715D02*
X0049273Y0009715D01*
X0049756Y0009231D02*
X0049756Y0011166D01*
X0050240Y0011650D01*
X0048261Y0011166D02*
X0048261Y0010199D01*
X0047777Y0009715D01*
X0046326Y0009715D01*
X0046326Y0008748D02*
X0046326Y0011650D01*
X0047777Y0011650D01*
X0048261Y0011166D01*
X0045314Y0010683D02*
X0043863Y0010683D01*
X0043380Y0011166D01*
X0043863Y0011650D01*
X0045314Y0011650D01*
X0045314Y0010199D01*
X0044831Y0009715D01*
X0043863Y0009715D01*
X0042375Y0009715D02*
X0040924Y0010683D01*
X0042375Y0011650D01*
X0040924Y0011650D02*
X0040924Y0008748D01*
X0039913Y0008748D02*
X0037978Y0011650D01*
X0036966Y0011650D02*
X0036966Y0010199D01*
X0036482Y0009715D01*
X0035999Y0010199D01*
X0035999Y0011650D01*
X0035031Y0011650D02*
X0035031Y0009715D01*
X0035515Y0009715D01*
X0035999Y0010199D01*
X0034020Y0010199D02*
X0033536Y0009715D01*
X0032568Y0009715D01*
X0032085Y0010199D01*
X0032085Y0011166D01*
X0032568Y0011650D01*
X0033536Y0011650D01*
X0034020Y0011166D01*
X0034020Y0010199D01*
X0031073Y0009715D02*
X0029622Y0009715D01*
X0029138Y0010199D01*
X0029138Y0011166D01*
X0029622Y0011650D01*
X0031073Y0011650D01*
X0028148Y0011650D02*
X0028148Y0011166D01*
X0027665Y0011166D01*
X0027665Y0011650D01*
X0028148Y0011650D01*
X0026653Y0011166D02*
X0026653Y0010199D01*
X0026169Y0009715D01*
X0024718Y0009715D01*
X0024718Y0008748D02*
X0024718Y0011650D01*
X0026169Y0011650D01*
X0026653Y0011166D01*
X0023707Y0011650D02*
X0023707Y0009715D01*
X0021772Y0009715D02*
X0021772Y0011166D01*
X0022255Y0011650D01*
X0023707Y0011650D01*
X0020760Y0011650D02*
X0020760Y0010199D01*
X0020276Y0009715D01*
X0019309Y0009715D01*
X0018825Y0010199D01*
X0017828Y0009715D02*
X0016861Y0009715D01*
X0017345Y0009231D02*
X0017345Y0011166D01*
X0017828Y0011650D01*
X0018825Y0011650D02*
X0018825Y0008748D01*
X0015380Y0008748D02*
X0015380Y0008264D01*
X0015380Y0009715D02*
X0014897Y0009715D01*
X0015380Y0009715D02*
X0015380Y0011650D01*
X0014897Y0011650D02*
X0015864Y0011650D01*
X0013885Y0011650D02*
X0012434Y0011650D01*
X0011950Y0011166D01*
X0011950Y0010199D01*
X0012434Y0009715D01*
X0013885Y0009715D01*
X0013885Y0012134D01*
X0013401Y0012617D01*
X0012917Y0012617D01*
X0013802Y0024197D02*
X0011950Y0024197D01*
X0011950Y0027900D01*
X0011950Y0026666D02*
X0013802Y0026666D01*
X0014419Y0026048D01*
X0014419Y0024814D01*
X0013802Y0024197D01*
X0015633Y0026048D02*
X0015633Y0027283D01*
X0016250Y0027900D01*
X0017485Y0027900D01*
X0018102Y0027283D01*
X0018102Y0026048D01*
X0017485Y0025431D01*
X0016250Y0025431D01*
X0015633Y0026048D01*
X0019316Y0025431D02*
X0019316Y0027283D01*
X0019933Y0027900D01*
X0020551Y0027283D01*
X0021168Y0027900D01*
X0021785Y0027283D01*
X0021785Y0025431D01*
X0022999Y0026048D02*
X0023617Y0025431D01*
X0024851Y0025431D01*
X0025468Y0026048D01*
X0025468Y0026666D01*
X0022999Y0026666D01*
X0022999Y0027283D02*
X0022999Y0026048D01*
X0022999Y0027283D02*
X0023617Y0027900D01*
X0024851Y0027900D01*
X0026683Y0027900D02*
X0026683Y0025431D01*
X0027917Y0025431D02*
X0028534Y0025431D01*
X0027917Y0025431D02*
X0026683Y0026666D01*
X0033435Y0027283D02*
X0034052Y0027900D01*
X0035287Y0027900D01*
X0035904Y0027283D01*
X0035904Y0026048D01*
X0035287Y0025431D01*
X0034669Y0025431D01*
X0033435Y0026048D01*
X0033435Y0024197D01*
X0035904Y0024197D01*
X0037118Y0026048D02*
X0039587Y0026048D01*
X0040801Y0025431D02*
X0042036Y0024197D01*
X0042036Y0027900D01*
X0043270Y0027900D02*
X0040801Y0027900D01*
X0044484Y0027283D02*
X0044484Y0026048D01*
X0046336Y0026048D01*
X0046953Y0026666D01*
X0046953Y0027283D01*
X0046336Y0027900D01*
X0045102Y0027900D01*
X0044484Y0027283D01*
X0044484Y0026048D02*
X0045719Y0024814D01*
X0046953Y0024197D01*
X0048168Y0025431D02*
X0049402Y0027900D01*
X0050636Y0025431D01*
X0050630Y0031697D02*
X0050630Y0035400D01*
X0051864Y0035400D02*
X0049395Y0035400D01*
X0048181Y0034783D02*
X0047564Y0035400D01*
X0046329Y0035400D01*
X0045712Y0034783D01*
X0048181Y0032314D01*
X0048181Y0034783D01*
X0049395Y0032931D02*
X0050630Y0031697D01*
X0048181Y0032314D02*
X0047564Y0031697D01*
X0046329Y0031697D01*
X0045712Y0032314D01*
X0045712Y0034783D01*
X0044498Y0035400D02*
X0042029Y0035400D01*
X0044498Y0032931D01*
X0044498Y0032314D01*
X0043881Y0031697D01*
X0042646Y0031697D01*
X0042029Y0032314D01*
X0037128Y0032931D02*
X0035277Y0034166D01*
X0037128Y0035400D01*
X0035277Y0035400D02*
X0035277Y0031697D01*
X0033445Y0032931D02*
X0032211Y0032931D01*
X0031593Y0033548D01*
X0031593Y0034783D01*
X0032211Y0035400D01*
X0033445Y0035400D01*
X0034062Y0034166D02*
X0031593Y0034166D01*
X0030376Y0032931D02*
X0029759Y0032931D01*
X0028524Y0034166D01*
X0028524Y0035400D02*
X0028524Y0032931D01*
X0027310Y0032931D02*
X0027310Y0035400D01*
X0025458Y0035400D01*
X0024841Y0034783D01*
X0024841Y0032931D01*
X0023620Y0032931D02*
X0022386Y0032931D01*
X0023003Y0032314D02*
X0023003Y0034783D01*
X0023620Y0035400D01*
X0021171Y0034783D02*
X0021171Y0033548D01*
X0020554Y0032931D01*
X0018702Y0032931D01*
X0017488Y0033548D02*
X0017488Y0035400D01*
X0015636Y0035400D01*
X0015019Y0034783D01*
X0015636Y0034166D01*
X0017488Y0034166D01*
X0017488Y0033548D02*
X0016871Y0032931D01*
X0015636Y0032931D01*
X0013802Y0032931D02*
X0011950Y0034166D01*
X0013802Y0035400D01*
X0011950Y0035400D02*
X0011950Y0031697D01*
X0018702Y0031697D02*
X0018702Y0035400D01*
X0020554Y0035400D01*
X0021171Y0034783D01*
X0033445Y0032931D02*
X0034062Y0033548D01*
X0034062Y0034166D01*
X0053078Y0033548D02*
X0053078Y0034783D01*
X0053696Y0035400D01*
X0054930Y0035400D01*
X0055547Y0034783D01*
X0055547Y0034166D01*
X0054930Y0033548D01*
X0053078Y0033548D01*
X0054313Y0032314D01*
X0055547Y0031697D01*
X0068418Y0008748D02*
X0068418Y0008264D01*
X0087577Y0008748D02*
X0088061Y0008748D01*
X0098381Y0009715D02*
X0098381Y0011650D01*
X0098381Y0010683D02*
X0099349Y0009715D01*
X0099832Y0009715D01*
X0064340Y0058748D02*
X0063372Y0058748D01*
X0062888Y0059231D01*
X0062888Y0061166D01*
X0064823Y0059231D01*
X0064823Y0061166D01*
X0064340Y0061650D01*
X0063372Y0061650D01*
X0062888Y0061166D01*
X0061899Y0061166D02*
X0061899Y0061650D01*
X0061415Y0061650D01*
X0061415Y0061166D01*
X0061899Y0061166D01*
X0060404Y0060199D02*
X0058469Y0060199D01*
X0059920Y0058748D01*
X0059920Y0061650D01*
X0064340Y0058748D02*
X0064823Y0059231D01*
X0054511Y0059715D02*
X0054511Y0061650D01*
X0054511Y0060199D02*
X0052576Y0060199D01*
X0052576Y0059715D02*
X0053543Y0058748D01*
X0054511Y0059715D01*
X0052576Y0059715D02*
X0052576Y0061650D01*
X0051564Y0061166D02*
X0051564Y0060683D01*
X0051080Y0060199D01*
X0050113Y0060199D01*
X0049629Y0059715D01*
X0049629Y0059231D01*
X0050113Y0058748D01*
X0051080Y0058748D01*
X0051564Y0059231D01*
X0048618Y0060199D02*
X0046683Y0060199D01*
X0045671Y0059231D02*
X0045671Y0058748D01*
X0045671Y0059231D02*
X0044704Y0060199D01*
X0044704Y0061650D01*
X0044704Y0060199D02*
X0043736Y0059231D01*
X0043736Y0058748D01*
X0042725Y0059231D02*
X0042725Y0059715D01*
X0042241Y0060199D01*
X0040790Y0060199D01*
X0042241Y0060199D02*
X0042725Y0060683D01*
X0042725Y0061166D01*
X0042241Y0061650D01*
X0040790Y0061650D01*
X0040790Y0058748D01*
X0042241Y0058748D01*
X0042725Y0059231D01*
X0036831Y0059231D02*
X0036348Y0058748D01*
X0035380Y0058748D01*
X0034897Y0059231D01*
X0034897Y0061166D01*
X0035380Y0061650D01*
X0036348Y0061650D01*
X0036831Y0061166D01*
X0033885Y0061166D02*
X0033401Y0061650D01*
X0032434Y0061650D01*
X0031950Y0061166D01*
X0031950Y0059231D01*
X0032434Y0058748D01*
X0033401Y0058748D01*
X0033885Y0059231D01*
X0049629Y0061166D02*
X0050113Y0061650D01*
X0051080Y0061650D01*
X0051564Y0061166D01*
D13*
X0062000Y0069013D02*
X0062000Y0072083D01*
X0062767Y0072850D01*
X0064302Y0072850D01*
X0065069Y0072083D01*
X0065069Y0069013D01*
X0064302Y0068246D01*
X0062767Y0068246D01*
X0062000Y0069013D01*
X0066604Y0069781D02*
X0066604Y0072083D01*
X0067371Y0072850D01*
X0069673Y0072850D01*
X0069673Y0069781D01*
X0071208Y0069781D02*
X0072742Y0069781D01*
X0071975Y0069013D02*
X0071975Y0072083D01*
X0072742Y0072850D01*
X0074277Y0072850D02*
X0076579Y0072850D01*
X0077346Y0072083D01*
X0077346Y0070548D01*
X0076579Y0069781D01*
X0074277Y0069781D01*
X0074277Y0074385D01*
X0078881Y0072083D02*
X0079648Y0072850D01*
X0081950Y0072850D01*
X0081950Y0069781D01*
X0083485Y0069781D02*
X0085020Y0069781D01*
X0084252Y0069013D02*
X0084252Y0072083D01*
X0085020Y0072850D01*
X0078881Y0072083D02*
X0078881Y0069781D01*
X0079500Y0062850D02*
X0082569Y0062850D01*
X0081035Y0062850D02*
X0081035Y0058246D01*
X0079500Y0059781D01*
X0078250Y0030350D02*
X0081319Y0027281D01*
X0081319Y0026513D01*
X0080552Y0025746D01*
X0079017Y0025746D01*
X0078250Y0026513D01*
X0078250Y0030350D02*
X0081319Y0030350D01*
X0070439Y0020350D02*
X0070439Y0016880D01*
X0068752Y0017748D02*
X0068752Y0018615D01*
X0065283Y0018615D01*
X0065283Y0017748D02*
X0065283Y0019483D01*
X0066150Y0020350D01*
X0067885Y0020350D01*
X0068752Y0017748D02*
X0067885Y0016880D01*
X0066150Y0016880D01*
X0065283Y0017748D01*
X0063580Y0016880D02*
X0061845Y0016880D01*
X0062713Y0016013D02*
X0062713Y0019483D01*
X0063580Y0020350D01*
X0060142Y0020350D02*
X0059275Y0019483D01*
X0059275Y0016013D01*
X0058408Y0016880D02*
X0060142Y0016880D01*
X0055837Y0016880D02*
X0055837Y0020350D01*
X0054970Y0020350D02*
X0056705Y0020350D01*
X0053267Y0020350D02*
X0051532Y0020350D01*
X0052400Y0020350D02*
X0052400Y0015146D01*
X0051532Y0015146D01*
X0048978Y0016880D02*
X0049846Y0017748D01*
X0049846Y0019483D01*
X0048978Y0020350D01*
X0046376Y0020350D01*
X0044689Y0019483D02*
X0043822Y0020350D01*
X0042087Y0020350D01*
X0041220Y0019483D01*
X0042087Y0017748D02*
X0043822Y0017748D01*
X0044689Y0018615D01*
X0044689Y0019483D01*
X0046376Y0022085D02*
X0046376Y0016880D01*
X0048978Y0016880D01*
X0044689Y0016013D02*
X0043822Y0015146D01*
X0042087Y0015146D01*
X0041220Y0016013D01*
X0041220Y0016880D01*
X0042087Y0017748D01*
X0034376Y0017748D02*
X0033509Y0016880D01*
X0031774Y0016880D01*
X0030907Y0017748D01*
X0030907Y0019483D01*
X0031774Y0020350D01*
X0033509Y0020350D01*
X0034376Y0019483D01*
X0034376Y0017748D01*
X0029220Y0017748D02*
X0029220Y0018615D01*
X0025750Y0018615D01*
X0025750Y0017748D02*
X0025750Y0019483D01*
X0026618Y0020350D01*
X0028353Y0020350D01*
X0029220Y0017748D02*
X0028353Y0016880D01*
X0026618Y0016880D01*
X0025750Y0017748D01*
X0024064Y0016880D02*
X0021461Y0016880D01*
X0020594Y0017748D01*
X0020594Y0019483D01*
X0021461Y0020350D01*
X0024064Y0020350D01*
X0024064Y0015146D01*
X0018024Y0015146D02*
X0018024Y0014278D01*
X0015470Y0015146D02*
X0015470Y0018615D01*
X0013735Y0020350D01*
X0012000Y0018615D01*
X0012000Y0015146D01*
X0017156Y0016880D02*
X0018024Y0016880D01*
X0018024Y0020350D01*
X0018891Y0020350D02*
X0017156Y0020350D01*
X0054970Y0016880D02*
X0055837Y0016880D01*
X0055837Y0015146D02*
X0055837Y0014278D01*
X0070439Y0018615D02*
X0072174Y0016880D01*
X0073041Y0016880D01*
X0027148Y0069013D02*
X0027148Y0072083D01*
X0027916Y0072850D01*
X0024846Y0072850D02*
X0024846Y0069781D01*
X0026381Y0069781D02*
X0027916Y0069781D01*
X0024846Y0072850D02*
X0022544Y0072850D01*
X0021777Y0072083D01*
X0021777Y0069781D01*
X0020242Y0070548D02*
X0020242Y0072083D01*
X0019475Y0072850D01*
X0017173Y0072850D01*
X0015639Y0072850D02*
X0015639Y0070548D01*
X0014871Y0069781D01*
X0012569Y0069781D01*
X0012569Y0072850D01*
X0011035Y0072850D02*
X0009500Y0072850D01*
X0010267Y0072850D02*
X0010267Y0068246D01*
X0009500Y0068246D02*
X0011035Y0068246D01*
X0017173Y0069781D02*
X0019475Y0069781D01*
X0020242Y0070548D01*
X0017173Y0069781D02*
X0017173Y0074385D01*
D14*
X0083050Y0044300D02*
X0094300Y0044300D01*
D15*
X0050161Y0047330D02*
X0048256Y0047137D01*
X0048051Y0046496D01*
X0047743Y0045898D01*
X0048954Y0044414D01*
X0047936Y0043396D01*
X0046452Y0044607D01*
X0045854Y0044299D01*
X0045213Y0044094D01*
X0045020Y0042189D01*
X0043580Y0042189D01*
X0043387Y0044094D01*
X0042746Y0044299D01*
X0042148Y0044607D01*
X0040664Y0043396D01*
X0039646Y0044414D01*
X0040857Y0045898D01*
X0040549Y0046496D01*
X0040344Y0047137D01*
X0038439Y0047330D01*
X0038439Y0048770D01*
X0040344Y0048963D01*
X0040549Y0049604D01*
X0040857Y0050202D01*
X0039646Y0051686D01*
X0040664Y0052704D01*
X0042148Y0051493D01*
X0042746Y0051801D01*
X0043594Y0049755D01*
X0043215Y0049543D01*
X0042897Y0049249D01*
X0042655Y0048888D01*
X0042505Y0048481D01*
X0042454Y0048050D01*
X0042507Y0047611D01*
X0042663Y0047198D01*
X0042912Y0046833D01*
X0043241Y0046539D01*
X0043631Y0046330D01*
X0044059Y0046221D01*
X0044501Y0046216D01*
X0044931Y0046316D01*
X0045325Y0046516D01*
X0045660Y0046804D01*
X0045918Y0047163D01*
X0046082Y0047573D01*
X0046145Y0048010D01*
X0046101Y0048450D01*
X0045955Y0048866D01*
X0045714Y0049236D01*
X0045391Y0049538D01*
X0045006Y0049755D01*
X0045854Y0051801D01*
X0046452Y0051493D01*
X0047936Y0052704D01*
X0048954Y0051686D01*
X0047743Y0050202D01*
X0048051Y0049604D01*
X0048256Y0048963D01*
X0050161Y0048770D01*
X0050161Y0047330D01*
X0050161Y0047445D02*
X0046031Y0047445D01*
X0046142Y0048034D02*
X0050161Y0048034D01*
X0050161Y0048623D02*
X0046040Y0048623D01*
X0045729Y0049212D02*
X0048177Y0049212D01*
X0047949Y0049802D02*
X0045026Y0049802D01*
X0045270Y0050391D02*
X0047897Y0050391D01*
X0048378Y0050980D02*
X0045514Y0050980D01*
X0045758Y0051569D02*
X0046305Y0051569D01*
X0046544Y0051569D02*
X0048858Y0051569D01*
X0048482Y0052158D02*
X0047267Y0052158D01*
X0043330Y0050391D02*
X0040703Y0050391D01*
X0040651Y0049802D02*
X0043574Y0049802D01*
X0042872Y0049212D02*
X0040423Y0049212D01*
X0038439Y0048623D02*
X0042558Y0048623D01*
X0042456Y0048034D02*
X0038439Y0048034D01*
X0038439Y0047445D02*
X0042570Y0047445D01*
X0042897Y0046856D02*
X0040433Y0046856D01*
X0040667Y0046267D02*
X0043878Y0046267D01*
X0044720Y0046267D02*
X0047933Y0046267D01*
X0047923Y0045678D02*
X0040677Y0045678D01*
X0040197Y0045089D02*
X0048403Y0045089D01*
X0048884Y0044500D02*
X0046582Y0044500D01*
X0046244Y0044500D02*
X0042356Y0044500D01*
X0042018Y0044500D02*
X0039716Y0044500D01*
X0040150Y0043911D02*
X0041295Y0043911D01*
X0043405Y0043911D02*
X0045195Y0043911D01*
X0045135Y0043322D02*
X0043465Y0043322D01*
X0043525Y0042733D02*
X0045075Y0042733D01*
X0047305Y0043911D02*
X0048450Y0043911D01*
X0048167Y0046856D02*
X0045698Y0046856D01*
X0043086Y0050980D02*
X0040222Y0050980D01*
X0039742Y0051569D02*
X0042056Y0051569D01*
X0042295Y0051569D02*
X0042842Y0051569D01*
X0041333Y0052158D02*
X0040118Y0052158D01*
M02*
