%
M48
M72
T01C0.02362
T02C0.04000
%
T01
X44300Y25550
X69300Y40550
X66800Y44300
X75550Y46800
X79300Y41800
X81800Y46800
X84300Y56800
X78050Y63050
X51800Y66800
X36800Y66800
X31800Y56800
X24300Y56800
X23050Y65550
X51800Y49300
X74300Y35550
X74300Y29300
X83050Y33050
X84300Y24300
X75550Y21800
X79300Y16800
T02
X14800Y41800
X13800Y51800
X14800Y61800
X88800Y70550
X89800Y60550
X88800Y50550
X88800Y38050
X89800Y28050
X88800Y18050
M30
